<mxfile host="Electron" agent="Mozilla/5.0 (Macintosh; Intel Mac OS X 10_15_7) AppleWebKit/537.36 (KHTML, like Gecko) draw.io/27.0.5 Chrome/134.0.6998.205 Electron/35.3.0 Safari/537.36" version="27.0.5">
  <diagram name="Page-1" id="6zoCKu99spRMIArHqIFN">
    <mxGraphModel dx="1018" dy="748" grid="1" gridSize="10" guides="1" tooltips="1" connect="1" arrows="1" fold="1" page="1" pageScale="1" pageWidth="850" pageHeight="1100" math="0" shadow="0">
      <root>
        <mxCell id="0" />
        <mxCell id="1" parent="0" />
        <mxCell id="6Ue3UePabhXQUmBdtjxr-1" value="Cloudwatch Streams / Firehost - OTEL Stream" style="text;html=1;align=center;verticalAlign=middle;whiteSpace=wrap;rounded=0;fontSize=20;" vertex="1" parent="1">
          <mxGeometry x="210" y="80" width="435" height="30" as="geometry" />
        </mxCell>
        <mxCell id="6Ue3UePabhXQUmBdtjxr-2" value="AWS Cloud" style="sketch=0;outlineConnect=0;gradientColor=none;html=1;whiteSpace=wrap;fontSize=12;fontStyle=0;shape=mxgraph.aws4.group;grIcon=mxgraph.aws4.group_aws_cloud;strokeColor=#AAB7B8;fillColor=none;verticalAlign=top;align=left;spacingLeft=30;fontColor=#AAB7B8;dashed=0;pointerEvents=0;" vertex="1" parent="1">
          <mxGeometry x="110" y="130" width="680" height="430" as="geometry" />
        </mxCell>
        <mxCell id="6Ue3UePabhXQUmBdtjxr-3" value="Region" style="points=[[0,0],[0.25,0],[0.5,0],[0.75,0],[1,0],[1,0.25],[1,0.5],[1,0.75],[1,1],[0.75,1],[0.5,1],[0.25,1],[0,1],[0,0.75],[0,0.5],[0,0.25]];outlineConnect=0;gradientColor=none;html=1;whiteSpace=wrap;fontSize=12;fontStyle=0;container=1;pointerEvents=0;collapsible=0;recursiveResize=0;shape=mxgraph.aws4.group;grIcon=mxgraph.aws4.group_region;strokeColor=#00A4A6;fillColor=none;verticalAlign=top;align=left;spacingLeft=30;fontColor=#147EBA;dashed=1;" vertex="1" parent="1">
          <mxGeometry x="140" y="160" width="580" height="380" as="geometry" />
        </mxCell>
        <mxCell id="6Ue3UePabhXQUmBdtjxr-4" value="" style="sketch=0;points=[[0,0,0],[0.25,0,0],[0.5,0,0],[0.75,0,0],[1,0,0],[0,1,0],[0.25,1,0],[0.5,1,0],[0.75,1,0],[1,1,0],[0,0.25,0],[0,0.5,0],[0,0.75,0],[1,0.25,0],[1,0.5,0],[1,0.75,0]];points=[[0,0,0],[0.25,0,0],[0.5,0,0],[0.75,0,0],[1,0,0],[0,1,0],[0.25,1,0],[0.5,1,0],[0.75,1,0],[1,1,0],[0,0.25,0],[0,0.5,0],[0,0.75,0],[1,0.25,0],[1,0.5,0],[1,0.75,0]];outlineConnect=0;fontColor=#232F3E;fillColor=#E7157B;strokeColor=#ffffff;dashed=0;verticalLabelPosition=bottom;verticalAlign=top;align=center;html=1;fontSize=12;fontStyle=0;aspect=fixed;shape=mxgraph.aws4.resourceIcon;resIcon=mxgraph.aws4.cloudwatch_2;" vertex="1" parent="6Ue3UePabhXQUmBdtjxr-3">
          <mxGeometry x="20" y="80" width="50" height="50" as="geometry" />
        </mxCell>
        <mxCell id="6Ue3UePabhXQUmBdtjxr-5" value="" style="sketch=0;points=[[0,0,0],[0.25,0,0],[0.5,0,0],[0.75,0,0],[1,0,0],[0,1,0],[0.25,1,0],[0.5,1,0],[0.75,1,0],[1,1,0],[0,0.25,0],[0,0.5,0],[0,0.75,0],[1,0.25,0],[1,0.5,0],[1,0.75,0]];outlineConnect=0;fontColor=#232F3E;fillColor=#8C4FFF;strokeColor=#ffffff;dashed=0;verticalLabelPosition=bottom;verticalAlign=top;align=center;html=1;fontSize=12;fontStyle=0;aspect=fixed;shape=mxgraph.aws4.resourceIcon;resIcon=mxgraph.aws4.kinesis_data_firehose;" vertex="1" parent="6Ue3UePabhXQUmBdtjxr-3">
          <mxGeometry x="120" y="80" width="50" height="50" as="geometry" />
        </mxCell>
        <mxCell id="6Ue3UePabhXQUmBdtjxr-6" value="" style="sketch=0;points=[[0,0,0],[0.25,0,0],[0.5,0,0],[0.75,0,0],[1,0,0],[0,1,0],[0.25,1,0],[0.5,1,0],[0.75,1,0],[1,1,0],[0,0.25,0],[0,0.5,0],[0,0.75,0],[1,0.25,0],[1,0.5,0],[1,0.75,0]];outlineConnect=0;fontColor=#232F3E;fillColor=#7AA116;strokeColor=#ffffff;dashed=0;verticalLabelPosition=bottom;verticalAlign=top;align=center;html=1;fontSize=12;fontStyle=0;aspect=fixed;shape=mxgraph.aws4.resourceIcon;resIcon=mxgraph.aws4.s3;" vertex="1" parent="6Ue3UePabhXQUmBdtjxr-3">
          <mxGeometry x="220" y="80" width="50" height="50" as="geometry" />
        </mxCell>
        <mxCell id="6Ue3UePabhXQUmBdtjxr-13" style="edgeStyle=orthogonalEdgeStyle;rounded=0;orthogonalLoop=1;jettySize=auto;html=1;exitX=1;exitY=0.5;exitDx=0;exitDy=0;exitPerimeter=0;" edge="1" parent="6Ue3UePabhXQUmBdtjxr-3" source="6Ue3UePabhXQUmBdtjxr-7" target="6Ue3UePabhXQUmBdtjxr-8">
          <mxGeometry relative="1" as="geometry" />
        </mxCell>
        <mxCell id="6Ue3UePabhXQUmBdtjxr-7" value="" style="outlineConnect=0;dashed=0;verticalLabelPosition=bottom;verticalAlign=top;align=center;html=1;shape=mxgraph.aws3.lambda_function;fillColor=#F58534;gradientColor=none;" vertex="1" parent="6Ue3UePabhXQUmBdtjxr-3">
          <mxGeometry x="165" y="217" width="55" height="50" as="geometry" />
        </mxCell>
        <mxCell id="6Ue3UePabhXQUmBdtjxr-8" value="" style="sketch=0;outlineConnect=0;fontColor=#232F3E;gradientColor=none;fillColor=#8C4FFF;strokeColor=none;dashed=0;verticalLabelPosition=bottom;verticalAlign=top;align=center;html=1;fontSize=12;fontStyle=0;aspect=fixed;pointerEvents=1;shape=mxgraph.aws4.network_load_balancer;" vertex="1" parent="6Ue3UePabhXQUmBdtjxr-3">
          <mxGeometry x="270" y="213.5" width="57" height="57" as="geometry" />
        </mxCell>
        <mxCell id="6Ue3UePabhXQUmBdtjxr-9" value="" style="outlineConnect=0;dashed=0;verticalLabelPosition=bottom;verticalAlign=top;align=center;html=1;shape=mxgraph.aws3.ec2;fillColor=#F58534;gradientColor=none;" vertex="1" parent="6Ue3UePabhXQUmBdtjxr-3">
          <mxGeometry x="380" y="210.5" width="50" height="43" as="geometry" />
        </mxCell>
        <mxCell id="6Ue3UePabhXQUmBdtjxr-10" style="edgeStyle=orthogonalEdgeStyle;rounded=0;orthogonalLoop=1;jettySize=auto;html=1;exitX=1;exitY=0.5;exitDx=0;exitDy=0;exitPerimeter=0;entryX=0;entryY=0.5;entryDx=0;entryDy=0;entryPerimeter=0;" edge="1" parent="6Ue3UePabhXQUmBdtjxr-3" source="6Ue3UePabhXQUmBdtjxr-4" target="6Ue3UePabhXQUmBdtjxr-5">
          <mxGeometry relative="1" as="geometry" />
        </mxCell>
        <mxCell id="6Ue3UePabhXQUmBdtjxr-11" style="edgeStyle=orthogonalEdgeStyle;rounded=0;orthogonalLoop=1;jettySize=auto;html=1;exitX=1;exitY=0.5;exitDx=0;exitDy=0;exitPerimeter=0;entryX=0;entryY=0.5;entryDx=0;entryDy=0;entryPerimeter=0;" edge="1" parent="6Ue3UePabhXQUmBdtjxr-3" source="6Ue3UePabhXQUmBdtjxr-5" target="6Ue3UePabhXQUmBdtjxr-6">
          <mxGeometry relative="1" as="geometry" />
        </mxCell>
        <mxCell id="6Ue3UePabhXQUmBdtjxr-12" style="edgeStyle=orthogonalEdgeStyle;rounded=0;orthogonalLoop=1;jettySize=auto;html=1;exitX=0.5;exitY=1;exitDx=0;exitDy=0;exitPerimeter=0;entryX=0;entryY=0.5;entryDx=0;entryDy=0;entryPerimeter=0;" edge="1" parent="6Ue3UePabhXQUmBdtjxr-3" source="6Ue3UePabhXQUmBdtjxr-5" target="6Ue3UePabhXQUmBdtjxr-7">
          <mxGeometry relative="1" as="geometry" />
        </mxCell>
        <mxCell id="6Ue3UePabhXQUmBdtjxr-14" value="" style="endArrow=classic;html=1;rounded=0;entryX=0;entryY=0.25;entryDx=0;entryDy=0;" edge="1" parent="6Ue3UePabhXQUmBdtjxr-3" source="6Ue3UePabhXQUmBdtjxr-8" target="6Ue3UePabhXQUmBdtjxr-21">
          <mxGeometry width="50" height="50" relative="1" as="geometry">
            <mxPoint x="320" y="337" as="sourcePoint" />
            <mxPoint x="370" y="287" as="targetPoint" />
          </mxGeometry>
        </mxCell>
        <mxCell id="6Ue3UePabhXQUmBdtjxr-15" value="VPC" style="sketch=0;outlineConnect=0;gradientColor=none;html=1;whiteSpace=wrap;fontSize=12;fontStyle=0;shape=mxgraph.aws4.group;grIcon=mxgraph.aws4.group_vpc;strokeColor=#879196;fillColor=none;verticalAlign=top;align=left;spacingLeft=30;fontColor=#879196;dashed=0;pointerEvents=0;" vertex="1" parent="6Ue3UePabhXQUmBdtjxr-3">
          <mxGeometry x="80" y="187" width="460" height="180" as="geometry" />
        </mxCell>
        <mxCell id="6Ue3UePabhXQUmBdtjxr-16" value="Cloudwatch Streams" style="text;html=1;align=center;verticalAlign=middle;whiteSpace=wrap;rounded=0;" vertex="1" parent="6Ue3UePabhXQUmBdtjxr-3">
          <mxGeometry x="15" y="167" width="60" height="30" as="geometry" />
        </mxCell>
        <mxCell id="6Ue3UePabhXQUmBdtjxr-17" value="Amazon Data Firehose" style="text;html=1;align=center;verticalAlign=middle;whiteSpace=wrap;rounded=0;" vertex="1" parent="6Ue3UePabhXQUmBdtjxr-3">
          <mxGeometry x="100" y="167" width="90" height="30" as="geometry" />
        </mxCell>
        <mxCell id="6Ue3UePabhXQUmBdtjxr-18" value="S3 Bucket" style="text;html=1;align=center;verticalAlign=middle;whiteSpace=wrap;rounded=0;" vertex="1" parent="6Ue3UePabhXQUmBdtjxr-3">
          <mxGeometry x="220" y="130" width="60" height="30" as="geometry" />
        </mxCell>
        <mxCell id="6Ue3UePabhXQUmBdtjxr-19" value="Lambda Transform Handler" style="text;html=1;align=center;verticalAlign=middle;whiteSpace=wrap;rounded=0;" vertex="1" parent="6Ue3UePabhXQUmBdtjxr-3">
          <mxGeometry x="130" y="270" width="103" height="30" as="geometry" />
        </mxCell>
        <mxCell id="6Ue3UePabhXQUmBdtjxr-20" value="Network Load Balancer" style="text;html=1;align=center;verticalAlign=middle;whiteSpace=wrap;rounded=0;" vertex="1" parent="6Ue3UePabhXQUmBdtjxr-3">
          <mxGeometry x="250" y="270.5" width="100" height="30" as="geometry" />
        </mxCell>
        <mxCell id="6Ue3UePabhXQUmBdtjxr-21" value="" style="rounded=0;whiteSpace=wrap;html=1;fillColor=none;pointerEvents=0;" vertex="1" parent="6Ue3UePabhXQUmBdtjxr-3">
          <mxGeometry x="370" y="207" width="140" height="140" as="geometry" />
        </mxCell>
        <mxCell id="6Ue3UePabhXQUmBdtjxr-22" value="EC2 Instance" style="text;html=1;align=center;verticalAlign=middle;whiteSpace=wrap;rounded=0;" vertex="1" parent="6Ue3UePabhXQUmBdtjxr-3">
          <mxGeometry x="430" y="207" width="80" height="30" as="geometry" />
        </mxCell>
        <mxCell id="6Ue3UePabhXQUmBdtjxr-26" value="" style="group" vertex="1" connectable="0" parent="6Ue3UePabhXQUmBdtjxr-3">
          <mxGeometry x="380" y="267" width="70" height="70" as="geometry" />
        </mxCell>
        <mxCell id="6Ue3UePabhXQUmBdtjxr-24" value="" style="image;sketch=0;aspect=fixed;html=1;points=[];align=center;fontSize=12;image=img/lib/mscae/Docker.svg;" vertex="1" parent="6Ue3UePabhXQUmBdtjxr-26">
          <mxGeometry y="40" width="36.59" height="30" as="geometry" />
        </mxCell>
        <mxCell id="6Ue3UePabhXQUmBdtjxr-25" value="" style="whiteSpace=wrap;html=1;aspect=fixed;fillColor=none;" vertex="1" parent="6Ue3UePabhXQUmBdtjxr-26">
          <mxGeometry width="70" height="70" as="geometry" />
        </mxCell>
        <mxCell id="6Ue3UePabhXQUmBdtjxr-27" value="&lt;p style=&quot;margin: 0px; font-variant-numeric: normal; font-variant-east-asian: normal; font-variant-alternates: normal; font-size-adjust: none; font-kerning: auto; font-optical-sizing: auto; font-feature-settings: normal; font-variation-settings: normal; font-variant-position: normal; font-variant-emoji: normal; font-stretch: normal; font-size: 11px; line-height: normal; font-family: Menlo; text-align: start;&quot; class=&quot;p1&quot;&gt;&lt;span style=&quot;font-variant-ligatures: no-common-ligatures;&quot; class=&quot;s1&quot;&gt;otel/opentelemetry-collector-contrib&lt;/span&gt;&lt;/p&gt;" style="text;html=1;align=center;verticalAlign=middle;whiteSpace=wrap;rounded=0;" vertex="1" parent="6Ue3UePabhXQUmBdtjxr-3">
          <mxGeometry x="390" y="277" width="160" height="30" as="geometry" />
        </mxCell>
        <mxCell id="6Ue3UePabhXQUmBdtjxr-28" value="Listener: 4318" style="text;html=1;align=center;verticalAlign=middle;whiteSpace=wrap;rounded=0;" vertex="1" parent="6Ue3UePabhXQUmBdtjxr-3">
          <mxGeometry x="327" y="240" width="80" height="30" as="geometry" />
        </mxCell>
      </root>
    </mxGraphModel>
  </diagram>
</mxfile>
